# xmcd
# Copyright (C) 1995-1998 Ti Kan
#
# Track frame offsets:
#       165
#       15624
#       33071
#       46974
#       66652
#       87676
#       104618
#       119973
#       142719
#       160181
#
# Disc length: 2265 seconds
#
# Revision: 2
# Processed by: cddbd v1.4PL0 Copyright (c) Steve Scherf et al.
# Submitted via: CD-Transfer v1.0
#
DISCID=8b08d70a
DTITLE=Schelker Bettina - Durst
DYEAR=1999
DGENRE=
TTITLE0=Durst
TTITLE1=Luegner
TTITLE2=Jetzt Oder Nie
TTITLE3=Woelf Im Schafspelz
TTITLE4=Stilli Wasser
TTITLE5=Schnee Von Geschter
TTITLE6=Dannyboy
TTITLE7=Friss Oder Stirb!
TTITLE8=Saeg Nuet
TTITLE9=Kuess Mich
EXTD=
EXTT0=
EXTT1=
EXTT2=
EXTT3=
EXTT4=
EXTT5=
EXTT6=
EXTT7=
EXTT8=
EXTT9=
PLAYORDER=
